<?xml version="1.0" encoding="utf-8"?>
<!-- Generator: Adobe Illustrator 15.0.0, SVG Export Plug-In . SVG Version: 6.00 Build 0)  -->
<!DOCTYPE svg PUBLIC "-//W3C//DTD SVG 1.1//EN" "http://www.w3.org/Graphics/SVG/1.1/DTD/svg11.dtd">
<svg version="1.1" id="Layer_1" xmlns="http://www.w3.org/2000/svg" xmlns:xlink="http://www.w3.org/1999/xlink" x="0px" y="0px"
	 width="110px" height="110px" viewBox="20 28.5 110 110" enable-background="new 20 28.5 110 110" xml:space="preserve">
<g>
	<g>
		<g>
			<path fill="#231F20" d="M104.853,127.064H43.491l-0.303-0.24c-12.085-9.563-19.016-23.853-19.016-39.197c0-1.4,0-2.104,50-2.104
				s50,0.703,50,2.104c0,15.345-6.93,29.634-19.016,39.197L104.853,127.064L104.853,127.064z M44.263,124.85h59.816
				c11.143-8.958,17.617-22.146,17.871-36.353c-4.021-0.447-23.321-0.76-47.778-0.76c-24.456,0-43.757,0.312-47.778,0.76
				C26.648,102.703,33.123,115.892,44.263,124.85L44.263,124.85z"/>
		</g>
		<g>
			<path fill="#231F20" d="M36.284,109.007c-0.394,0-0.774-0.21-0.976-0.578c-2.596-4.799-4.258-9.976-4.936-15.388
				c-0.076-0.608,0.353-1.161,0.96-1.237c0.627-0.092,1.161,0.355,1.237,0.96c0.645,5.141,2.222,10.054,4.688,14.609
				c0.292,0.538,0.091,1.211-0.447,1.5C36.643,108.965,36.461,109.007,36.284,109.007L36.284,109.007z"/>
		</g>
		<g>
			<path fill="#231F20" d="M40.309,115.133c-0.329,0-0.655-0.145-0.873-0.423c-0.417-0.534-0.823-1.074-1.217-1.626
				c-0.355-0.496-0.241-1.189,0.256-1.547c0.501-0.353,1.191-0.239,1.545,0.259c0.375,0.525,0.761,1.039,1.158,1.546
				c0.378,0.483,0.293,1.179-0.188,1.554C40.788,115.055,40.548,115.133,40.309,115.133L40.309,115.133z"/>
		</g>
		<g>
			<path fill="#231F20" d="M107.468,134.527H40.872l2.112-9.678h62.374L107.468,134.527L107.468,134.527z M43.623,132.312h61.096
				l-1.144-5.248H44.769L43.623,132.312L43.623,132.312z"/>
		</g>
	</g>
	<g>
		<g>
			<path fill="#231F20" d="M48.987,81.303c-0.069,0-0.14-0.007-0.209-0.02c-0.431-0.084-10.588-2.132-14.339-10.38
				C31.856,65.228,33,58.13,37.835,49.811c0.275-0.476,0.865-0.681,1.373-0.468c8.916,3.618,14.164,8.529,15.596,14.599
				c2.084,8.818-4.696,16.656-4.985,16.986C49.607,81.169,49.301,81.303,48.987,81.303L48.987,81.303z M39.27,51.766
				c-4.047,7.287-4.998,13.407-2.821,18.209c2.77,6.109,9.939,8.411,12.114,8.98c1.373-1.782,5.632-7.993,4.083-14.52
				C51.43,59.309,46.932,55.05,39.27,51.766L39.27,51.766z"/>
		</g>
		<g>
			<g>
				<path fill="#231F20" d="M51.708,87.861c-0.36,0-0.713-0.177-0.926-0.501c-0.335-0.511-0.194-1.194,0.316-1.532
					c37.397-24.59,50.666-47.349,50.796-47.577c0.304-0.53,0.979-0.709,1.511-0.413c0.531,0.306,0.717,0.979,0.413,1.513
					c-0.134,0.231-13.666,23.448-51.501,48.328C52.128,87.802,51.917,87.861,51.708,87.861L51.708,87.861z"/>
			</g>
			<g>
				<path fill="#231F20" d="M58.665,83.117c-0.29,0-0.572-0.113-0.783-0.324c-0.277-0.277-0.386-0.676-0.29-1.058
					c0.825-3.232,1.072-8.058,1.312-12.726c0.36-7.022,0.67-13.089,2.769-15.262c1.025-1.064,2.299-1.604,3.787-1.604
					c1.623,0,3.188,0.67,4.292,1.288c0.484-3.124,1.759-9.244,4.526-11.222c2.096-1.493,4.884-1.042,6.465-0.145
					c0.894-3.417,3.295-10.664,7.644-10.815c0.005,0,0.009,0,0.016,0c1.404,0,2.467,0.448,3.334,1.329
					c1.291,1.308,1.868,3.335,2.129,4.977c2.383-2.443,6.803-6.306,10.907-6.306c1.175,0,2.256,0.307,3.214,0.913
					c5.313,4.683,1.255,12.034-1.033,15.333c1.775,0.222,4.158,0.799,5.588,2.28c0.868,0.896,1.286,1.996,1.242,3.263
					c-0.151,4.347-7.38,6.747-10.804,7.643c0.938,1.677,1.512,4.133-0.153,6.465c-1.976,2.764-8.082,4.04-11.212,4.525
					c1.284,2.296,2.169,5.672-0.327,8.079c-1.999,1.927-7.893,2.156-17.368,2.301c-5.726,0.089-11.645,0.181-14.979,1.031
					C58.849,83.107,58.755,83.117,58.665,83.117L58.665,83.117z M65.46,54.356c-0.875,0-1.593,0.306-2.194,0.929
					c-1.522,1.578-1.855,8.091-2.151,13.839c-0.207,4.038-0.419,8.192-1.013,11.462c3.63-0.593,8.779-0.672,13.781-0.75
					c6.395-0.097,14.352-0.22,15.867-1.68c2.497-2.409-0.868-6.608-0.904-6.651c-0.257-0.312-0.321-0.743-0.166-1.119
					c0.155-0.377,0.504-0.637,0.907-0.679c3.636-0.388,9.953-1.774,11.436-3.851c1.772-2.48-0.608-4.995-0.711-5.101
					c-0.28-0.293-0.381-0.713-0.261-1.099c0.12-0.385,0.439-0.674,0.836-0.757c3.444-0.702,10.584-3.082,10.685-5.937
					c0.021-0.662-0.175-1.188-0.623-1.65c-1.331-1.375-4.437-1.744-6.06-1.744c-0.431,0-0.851-0.25-1.031-0.643
					c-0.182-0.391-0.145-0.852,0.134-1.181c0.078-0.093,7.777-9.302,2.668-13.814c-0.465-0.279-1.129-0.466-1.888-0.466
					c-4.004,0-9.264,5.367-10.952,7.437c-0.298,0.36-0.793,0.5-1.235,0.338c-0.443-0.161-0.734-0.584-0.731-1.055
					c0.017-1.191-0.259-4.601-1.697-6.057c-0.448-0.454-0.954-0.666-1.592-0.666c-2.958,0.103-5.333,7.239-6.035,10.677
					c-0.081,0.397-0.371,0.716-0.755,0.838c-0.39,0.113-0.808,0.021-1.099-0.262c-0.011-0.01-1.458-1.358-3.173-1.358
					c-0.688,0-1.32,0.213-1.936,0.653c-2.075,1.482-3.462,7.8-3.849,11.434c-0.043,0.405-0.304,0.75-0.678,0.906
					c-0.375,0.157-0.806,0.092-1.121-0.163C69.896,56.169,67.629,54.356,65.46,54.356L65.46,54.356z"/>
			</g>
			<g>
				<path fill="#231F20" d="M79.925,75.602H67.706l-0.988-12.034c-0.05-0.611,0.405-1.146,1.013-1.195
					c0.629-0.028,1.146,0.404,1.195,1.013l0.82,10.003h10.179c0.612,0,1.107,0.494,1.107,1.106
					C81.032,75.107,80.537,75.602,79.925,75.602L79.925,75.602z"/>
			</g>
			<g>
				<path fill="#231F20" d="M78.586,66.47l-0.812-13.051c-0.037-0.61,0.427-1.136,1.038-1.175c0.646-0.053,1.137,0.429,1.174,1.036
					l0.672,10.812l10.355-0.791c0.625-0.06,1.143,0.411,1.19,1.02c0.046,0.611-0.411,1.142-1.021,1.189L78.586,66.47L78.586,66.47z"
					/>
			</g>
			<g>
				<path fill="#231F20" d="M88.714,56.575L87.9,44.58c-0.041-0.613,0.42-1.14,1.03-1.181c0.61-0.065,1.141,0.422,1.181,1.029
					l0.658,9.707l9.178-0.953c0.606-0.059,1.153,0.377,1.217,0.986c0.063,0.607-0.381,1.152-0.988,1.214L88.714,56.575
					L88.714,56.575z"/>
			</g>
		</g>
		<g>
			<path fill="#231F20" d="M106.37,83.117c-3.543,0-6.427-2.885-6.427-6.429c0-3.546,2.884-6.428,6.427-6.428
				c3.544,0,6.428,2.882,6.428,6.428C112.798,80.232,109.914,83.117,106.37,83.117L106.37,83.117z M106.37,72.474
				c-2.322,0-4.213,1.892-4.213,4.214c0,2.324,1.891,4.214,4.213,4.214s4.214-1.89,4.214-4.214
				C110.584,74.366,108.692,72.474,106.37,72.474L106.37,72.474z"/>
		</g>
		<g>
			<path fill="#231F20" d="M52.017,51.214l-5.099-8.628l6.56-2.956l-1.942-3.281l0.816-0.591c0.215-0.156,0.443-0.31,0.681-0.46
				c1.287-0.759,2.72-1.152,4.176-1.152c2.884,0,5.582,1.54,7.04,4.018c1.11,1.873,1.422,4.069,0.88,6.186
				c-0.542,2.118-1.875,3.895-3.753,5.007c-0.252,0.146-0.513,0.279-0.776,0.396l-0.903,0.404l-1.926-3.261L52.017,51.214
				L52.017,51.214z M50.083,43.59l2.583,4.366l5.752-4.318l2.136,3.618c1.205-0.814,2.063-2.03,2.429-3.456
				c0.396-1.542,0.168-3.143-0.643-4.511c-1.539-2.614-5.125-3.66-7.84-2.277l2.143,3.622L50.083,43.59L50.083,43.59z"/>
		</g>
		<g>
			<path fill="#231F20" d="M113.437,69.748c-2.185-1.802-3.303-3.778-3.33-5.876c-0.037-3.041,2.296-5.102,2.396-5.189l1.452,1.675
				l-0.727-0.836l0.73,0.833c-0.018,0.014-1.673,1.502-1.638,3.509c0.024,1.408,0.874,2.814,2.525,4.177L113.437,69.748
				L113.437,69.748z"/>
		</g>
		<g>
			<path fill="#231F20" d="M77.452,34.531c-0.522-1.269-1.276-2.088-2.302-2.506c-1.934-0.785-4.22,0.163-4.241,0.171l-0.88-2.033
				c0.125-0.055,3.137-1.332,5.955-0.19c1.581,0.643,2.767,1.892,3.517,3.715L77.452,34.531L77.452,34.531z"/>
		</g>
		<g>
			<path fill="#231F20" d="M48.987,81.303c-0.453,0-0.879-0.281-1.042-0.731l-7.536-20.88c-0.209-0.575,0.088-1.212,0.664-1.419
				c0.577-0.201,1.211,0.092,1.418,0.665l7.537,20.882c0.208,0.575-0.089,1.21-0.665,1.418
				C49.239,81.282,49.111,81.303,48.987,81.303L48.987,81.303z"/>
		</g>
	</g>
</g>
</svg>
