<?xml version="1.0" encoding="utf-8"?>
<!-- Generator: Adobe Illustrator 15.0.0, SVG Export Plug-In . SVG Version: 6.00 Build 0)  -->
<!DOCTYPE svg PUBLIC "-//W3C//DTD SVG 1.1//EN" "http://www.w3.org/Graphics/SVG/1.1/DTD/svg11.dtd">
<svg version="1.1" id="Layer_1" xmlns="http://www.w3.org/2000/svg" xmlns:xlink="http://www.w3.org/1999/xlink" x="0px" y="0px"
	 width="110px" height="110px" viewBox="20 28.5 110 110" enable-background="new 20 28.5 110 110" xml:space="preserve">
<g>
	<g>
		<g>
			<polygon fill="#231F20" points="95.23,69.737 52.771,69.737 52.771,67.606 95.23,67.606 95.23,69.737 			"/>
		</g>
		<g>
			<path fill="#231F20" d="M96.295,63.928h-2.129v-6.444l0.492-0.314c3.531-2.25,5.64-6.083,5.64-10.257
				c0-6.711-5.46-12.172-12.169-12.172c-1.502,0-2.991,0.286-4.427,0.847l-0.803,0.314l-0.475-0.722
				C80.548,32.332,77.4,30.63,74,30.63c-3.398,0-6.548,1.701-8.422,4.55l-0.476,0.722L64.3,35.587
				c-1.435-0.562-2.925-0.847-4.429-0.847c-6.709,0-12.169,5.461-12.169,12.172c0,4.172,2.108,8.007,5.641,10.257l0.494,0.314v6.444
				h-2.132v-5.29c-3.852-2.677-6.135-7.018-6.135-11.725c0-7.886,6.417-14.303,14.301-14.303c1.495,0,2.978,0.239,4.415,0.709
				C66.594,30.286,70.165,28.5,74,28.5s7.41,1.786,9.716,4.819c1.439-0.47,2.92-0.709,4.413-0.709c7.886,0,14.3,6.417,14.3,14.303
				c0,4.709-2.282,9.048-6.134,11.725V63.928L96.295,63.928z"/>
		</g>
		<g>
			<path fill="#231F20" d="M74,103.469c-10.065,0-18.951-8.679-21.531-20.826c-0.587,0.085-1.178-0.025-1.733-0.324
				c-1.886-1.021-3.2-4.022-3.2-7.304c0-1.633,0.506-2.828,1.506-3.557c0.855-0.623,1.866-0.74,2.664-0.692v-6.838h2.132v9.556
				l-1.392-0.448c-0.38-0.115-1.514-0.324-2.154,0.149c-0.416,0.306-0.626,0.922-0.626,1.83c0,2.692,1.06,4.876,2.085,5.429
				c0.339,0.181,0.54,0.105,0.706-0.003l0.099-0.104l1.436-1.29l0.322,1.904C56.333,92.764,64.612,101.34,74,101.34
				c9.39,0,17.669-8.576,19.688-20.389l0.326-1.904l1.66,1.492c0.04,0.012,0.242,0.085,0.58-0.096
				c1.022-0.553,2.081-2.736,2.081-5.429c0-0.913-0.21-1.527-0.631-1.833c-0.66-0.479-1.86-0.238-2.146-0.146l-1.392,0.448v-9.556
				h2.129v6.838c0.808-0.048,1.81,0.069,2.665,0.692c0.998,0.729,1.508,1.924,1.508,3.557c0,3.281-1.317,6.283-3.202,7.304
				c-0.562,0.305-1.157,0.426-1.736,0.339C92.943,94.799,84.062,103.469,74,103.469L74,103.469z"/>
		</g>
		<g>
			<polygon fill="#231F20" points="95.23,64.992 55.589,64.992 55.589,62.861 95.23,62.861 95.23,64.992 			"/>
		</g>
		<g>
			<g>
				<path fill="#231F20" d="M83.726,38.2c-0.271-1.064-0.717-2.078-1.327-3.012l1.784-1.166c0.738,1.132,1.281,2.361,1.607,3.653
					L83.726,38.2L83.726,38.2z"/>
			</g>
			<g>
				<path fill="#231F20" d="M63.969,40.66H61.84c0-2.367,0.685-4.664,1.979-6.64l1.782,1.165
					C64.534,36.816,63.969,38.709,63.969,40.66L63.969,40.66z"/>
			</g>
		</g>
		<g>
			<polygon fill="#231F20" points="59.741,61.872 57.609,61.872 57.609,58.488 59.741,58.488 59.741,61.872 			"/>
		</g>
		<g>
			<polygon fill="#231F20" points="67.404,61.872 65.274,61.872 65.274,58.488 67.404,58.488 67.404,61.872 			"/>
		</g>
		<g>
			<polygon fill="#231F20" points="75.064,61.872 72.936,61.872 72.936,58.488 75.064,58.488 75.064,61.872 			"/>
		</g>
		<g>
			<polygon fill="#231F20" points="82.728,61.872 80.597,61.872 80.597,58.488 82.728,58.488 82.728,61.872 			"/>
		</g>
		<g>
			<polygon fill="#231F20" points="90.391,61.872 88.259,61.872 88.259,58.488 90.391,58.488 90.391,61.872 			"/>
		</g>
	</g>
	<g>
		<path fill="#231F20" d="M58.92,106.313l-1.995-0.754c1.493-3.951,1.537-10.367,1.537-10.432l2.129,0.009
			C60.591,95.417,60.546,101.997,58.92,106.313L58.92,106.313z"/>
	</g>
	<g>
		<path fill="#231F20" d="M89.083,106.313c-1.626-4.316-1.672-10.896-1.674-11.177l2.133-0.009c0,0.064,0.044,6.48,1.534,10.432
			L89.083,106.313L89.083,106.313z"/>
	</g>
	<g>
		<path fill="#231F20" d="M124,135.549h-2.129v-7.828c0-6.705-7.113-10.063-7.186-10.096l-21.69-9.135l-1.676-4.638l-2.681-1.092
			l0.805-1.973l3.557,1.45l1.682,4.649l20.86,8.787c0.374,0.171,8.458,3.96,8.458,12.046V135.549L124,135.549z"/>
	</g>
	<g>
		<circle fill="#231F20" cx="67.292" cy="123.648" r="1.459"/>
	</g>
	<g>
		<circle fill="#231F20" cx="68.811" cy="133.002" r="1.46"/>
	</g>
	<g>
		<path fill="#231F20" d="M77.755,123.648c0-0.807-0.65-1.457-1.456-1.457c-0.807,0-1.462,0.65-1.462,1.457
			c0,0.806,0.655,1.461,1.462,1.461C77.104,125.109,77.755,124.454,77.755,123.648z"/>
	</g>
	<g>
		<path fill="#231F20" d="M79.274,133.002c0-0.807-0.651-1.458-1.46-1.458c-0.807,0-1.456,0.651-1.456,1.458s0.649,1.46,1.456,1.46
			C78.623,134.462,79.274,133.809,79.274,133.002z"/>
	</g>
	<g>
		<path fill="#231F20" d="M60.922,135.823l-4.368-16.307l1.315-0.064c0.248-0.014,24.863-1.428,33.356-16.919l1.867,1.023
			c-7.999,14.591-28.384,17.421-33.81,17.922l3.696,13.797L60.922,135.823L60.922,135.823z"/>
	</g>
	<g>
		<path fill="#231F20" d="M77.642,114.337c-17.287,0-22.524-10.347-22.755-10.826l1.915-0.934c0.231,0.466,5.871,11.386,25.52,9.383
			l0.216,2.117C80.81,114.257,79.176,114.337,77.642,114.337L77.642,114.337z"/>
	</g>
	<g>
		<path fill="#231F20" d="M26.129,135.549H24v-7.828c0-8.086,8.084-11.875,8.429-12.032l20.893-8.801l1.682-4.649l3.553-1.45
			l0.807,1.973l-2.679,1.092l-1.679,4.638l-21.719,9.148c-0.041,0.019-7.157,3.377-7.157,10.082V135.549L26.129,135.549z"/>
	</g>
</g>
</svg>
