<?xml version="1.0" encoding="utf-8"?>
<!-- Generator: Adobe Illustrator 15.0.0, SVG Export Plug-In . SVG Version: 6.00 Build 0)  -->
<!DOCTYPE svg PUBLIC "-//W3C//DTD SVG 1.1//EN" "http://www.w3.org/Graphics/SVG/1.1/DTD/svg11.dtd">
<svg version="1.1" id="Layer_1" xmlns="http://www.w3.org/2000/svg" xmlns:xlink="http://www.w3.org/1999/xlink" x="0px" y="0px"
	 width="110px" height="110px" viewBox="20 28.5 110 110" enable-background="new 20 28.5 110 110" xml:space="preserve">
<g>
	<g>
		<g>
			<g>
				<path fill="#231F20" d="M41.417,74.884c-4.745,0-8.459-5.369-8.459-12.226c0-6.857,3.715-12.226,8.459-12.226
					c4.741,0,8.458,5.369,8.458,12.226C49.875,69.515,46.158,74.884,41.417,74.884L41.417,74.884z M41.417,52.731
					c-3.341,0-6.162,4.545-6.162,9.927c0,5.38,2.821,9.927,6.162,9.927c3.337,0,6.159-4.547,6.159-9.927
					C47.576,57.276,44.754,52.731,41.417,52.731L41.417,52.731z"/>
			</g>
			<g>
				<path fill="#231F20" d="M45.374,111.845h-7.921l1.462-39.259h5.001L45.374,111.845L45.374,111.845z M39.838,109.547h3.151
					l-1.29-34.663h-0.568L39.838,109.547L39.838,109.547z"/>
			</g>
		</g>
		<g>
			<g>
				<path fill="#231F20" d="M60.718,71.785c-4.521,0-8.2-4.792-8.2-10.68v-9.524c0-0.634,0.515-1.148,1.15-1.148
					s1.15,0.515,1.15,1.148v9.524c0,4.62,2.646,8.381,5.899,8.381c3.25,0,5.895-3.761,5.895-8.381v-9.524
					c0-0.634,0.515-1.148,1.15-1.148c0.634,0,1.149,0.515,1.149,1.148v9.524C68.912,66.993,65.235,71.785,60.718,71.785
					L60.718,71.785z"/>
			</g>
			<g>
				<g>
					<path fill="#231F20" d="M63.125,65.356c-0.636,0-1.15-0.515-1.15-1.148V51.581c0-0.634,0.515-1.148,1.15-1.148
						c0.634,0,1.148,0.515,1.148,1.148v12.627C64.273,64.842,63.758,65.356,63.125,65.356L63.125,65.356z"/>
				</g>
				<g>
					<path fill="#231F20" d="M58.307,65.356c-0.635,0-1.15-0.515-1.15-1.148V51.581c0-0.634,0.515-1.148,1.15-1.148
						c0.634,0,1.15,0.515,1.15,1.148v12.627C59.457,64.842,58.941,65.356,58.307,65.356L58.307,65.356z"/>
				</g>
			</g>
			<g>
				<path fill="#231F20" d="M64.674,111.845h-7.917l1.458-42.359h5.005L64.674,111.845L64.674,111.845z M59.138,109.547h3.155
					L61,71.785h-0.564L59.138,109.547L59.138,109.547z"/>
			</g>
		</g>
	</g>
	<g>
		<path fill="#231F20" d="M76.508,131.774h-44.89c-3.451,0-6.259-2.807-6.259-6.256V30.5H70.25c3.451,0,6.257,2.808,6.257,6.257
			V131.774L76.508,131.774z M27.66,32.799v92.72c0,2.182,1.777,3.957,3.958,3.957h42.591V36.757c0-2.183-1.775-3.958-3.958-3.958
			H27.66L27.66,32.799z"/>
	</g>
	<g>
		<path fill="#231F20" d="M119.099,131.774h-44.89V36.757c0-3.449,2.809-6.257,6.26-6.257h44.891v95.019
			C125.359,128.968,122.55,131.774,119.099,131.774L119.099,131.774z M76.508,129.476h42.591c2.184,0,3.961-1.775,3.961-3.957
			v-92.72H80.469c-2.184,0-3.961,1.775-3.961,3.958V129.476L76.508,129.476z"/>
	</g>
	<g>
		<path fill="#231F20" d="M43.535,136.172h-9.061c-3.265,0-5.922-2.658-5.922-5.925h2.299c0,2,1.626,3.625,3.624,3.625h9.061
			V136.172L43.535,136.172z"/>
	</g>
	<g>
		<path fill="#231F20" d="M116.239,136.172H53.544v-2.3h62.695c2.001,0,3.629-1.625,3.629-3.625h2.298
			C122.166,133.514,119.506,136.172,116.239,136.172L116.239,136.172z"/>
	</g>
	<g>
		<path fill="#231F20" d="M42.384,141.59v-12.114h12.308v12.114l-6.157-2.484L42.384,141.59L42.384,141.59z M48.536,136.628
			l3.858,1.555v-6.408h-7.708v6.408L48.536,136.628L48.536,136.628z"/>
	</g>
	<g>
		<polygon fill="#231F20" points="76.508,135.021 74.209,135.021 74.209,130.626 76.508,130.626 76.508,135.021 		"/>
	</g>
	<g>
		<path fill="#231F20" d="M114.398,77.815H83.572V46.996h30.826V77.815L114.398,77.815z M85.869,75.518h26.23V49.295h-26.23V75.518
			L85.869,75.518z"/>
	</g>
	<g>
		<polygon fill="#231F20" points="113.248,85.69 84.721,85.69 84.721,83.394 113.248,83.394 113.248,85.69 		"/>
	</g>
	<g>
		<polygon fill="#231F20" points="113.248,93.364 84.721,93.364 84.721,91.065 113.248,91.065 113.248,93.364 		"/>
	</g>
	<g>
		<polygon fill="#231F20" points="113.248,101.036 84.721,101.036 84.721,98.736 113.248,98.736 113.248,101.036 		"/>
	</g>
	<g>
		<polygon fill="#231F20" points="106.007,108.706 84.721,108.706 84.721,106.407 106.007,106.407 106.007,108.706 		"/>
	</g>
</g>
</svg>
