<?xml version="1.0" encoding="utf-8"?>
<!-- Generator: Adobe Illustrator 15.0.0, SVG Export Plug-In . SVG Version: 6.00 Build 0)  -->
<!DOCTYPE svg PUBLIC "-//W3C//DTD SVG 1.1//EN" "http://www.w3.org/Graphics/SVG/1.1/DTD/svg11.dtd">
<svg version="1.1" id="Layer_1" xmlns="http://www.w3.org/2000/svg" xmlns:xlink="http://www.w3.org/1999/xlink" x="0px" y="0px"
	 width="135px" height="35px" viewBox="0 0 135 35" enable-background="new 0 0 135 35" xml:space="preserve">
<g>
	<path fill="#978667" d="M5.519,25.867L6.7,27.262c-0.824-0.607-1.675-1.33-2.556-2.268C1.575,22.266,0,18.588,0,14.537
		C0,9.97,2.004,5.869,5.189,3.078L3.471,19.339c-0.049,0.479-0.056,0.938-0.014,1.374C3.557,22.624,4.266,24.406,5.519,25.867z"/>
	<path fill="#978667" d="M23.419,24.471l-3.922,4.604c-0.606,0.718-3.433,4.252-4.23,5.927l-0.007-0.007
		c-0.715-1.503-3.581-5.204-4.188-5.92L7.15,24.471c-0.945-1.105-1.489-2.469-1.553-3.914c-0.036-0.322-0.029-0.658,0.007-0.996
		L7.343,3.12C7.4,2.512,7.895,2.054,8.496,2.054c0.007,0,0.007,0,0.014,0h0.008c0.586,0,1.066,0.479,1.059,1.066v15.054
		c0,0.078,0.007,0.164,0.036,0.229c0.101,0.457,0.508,0.804,0.995,0.804c0.573,0,1.03-0.465,1.03-1.029V1.346
		c0-0.358,0.144-0.701,0.395-0.944C12.289,0.144,12.633,0,12.983,0c0.708,0.007,1.274,0.573,1.274,1.274v16.899
		c0,0.563,0.458,1.022,1.023,1.022c0.008,0,0.008,0,0.008,0c0.565,0,1.03-0.467,1.03-1.03V1.41c0-0.78,0.616-1.403,1.389-1.403
		c0,0,0.007,0,0.014,0h0.021c0.344,0,0.673,0.137,0.91,0.38c0.25,0.243,0.386,0.579,0.386,0.937L19.031,17.55l0.007,0.616
		c0,0.564,0.458,1.029,1.031,1.029c0,0,0.007,0,0.015,0c0.551,0,1.009-0.457,1.009-1.021l0.008-0.123L21.093,3.178
		c0-0.301,0.115-0.58,0.329-0.794c0.208-0.215,0.501-0.337,0.802-0.337c0.516,0,0.945,0.394,0.995,0.909l1.753,16.604
		c0.007,0.069,0.015,0.147,0.015,0.233C25.086,21.494,24.529,23.176,23.419,24.471z"/>
	<path fill="#978667" d="M30.534,14.537c0,4.051-1.575,7.723-4.144,10.457c-0.852,0.908-1.675,1.617-2.47,2.204l1.138-1.339
		c1.453-1.696,2.19-3.871,2.076-6.127c-0.007-0.164-0.015-0.31-0.029-0.407L25.402,3.12C28.551,5.919,30.534,10,30.534,14.537z"/>
</g>
<g>
	<path fill="#999999" d="M42.981,28.641h-0.553v2.528c0,0.333-0.073,0.578-0.218,0.735c-0.146,0.158-0.335,0.236-0.569,0.236
		c-0.251,0-0.446-0.082-0.584-0.248c-0.138-0.164-0.208-0.406-0.208-0.726v-6.06c0-0.344,0.077-0.592,0.229-0.744
		c0.152-0.154,0.399-0.231,0.739-0.231h2.567c0.354,0,0.657,0.017,0.909,0.048c0.252,0.028,0.479,0.092,0.68,0.186
		c0.245,0.104,0.46,0.252,0.649,0.445c0.188,0.191,0.33,0.418,0.428,0.674c0.097,0.256,0.146,0.525,0.146,0.812
		c0,0.587-0.164,1.057-0.492,1.406c-0.327,0.354-0.824,0.602-1.49,0.747c0.28,0.149,0.547,0.372,0.802,0.666
		c0.255,0.294,0.483,0.604,0.683,0.938c0.201,0.33,0.356,0.631,0.468,0.896c0.111,0.267,0.167,0.448,0.167,0.551
		c0,0.104-0.033,0.207-0.099,0.31c-0.065,0.104-0.154,0.184-0.268,0.241c-0.113,0.06-0.245,0.091-0.393,0.091
		c-0.177,0-0.327-0.043-0.447-0.127s-0.224-0.19-0.311-0.32c-0.087-0.129-0.205-0.317-0.354-0.568l-0.632-1.062
		c-0.227-0.392-0.43-0.688-0.608-0.893c-0.179-0.204-0.361-0.344-0.545-0.419C43.493,28.678,43.261,28.641,42.981,28.641z
		 M43.885,25.331h-1.457v2.164h1.414c0.379,0,0.698-0.033,0.957-0.101c0.258-0.065,0.456-0.18,0.593-0.338
		c0.136-0.158,0.204-0.38,0.204-0.658c0-0.219-0.055-0.41-0.165-0.576c-0.11-0.168-0.262-0.291-0.457-0.374
		C44.79,25.37,44.426,25.331,43.885,25.331z"/>
	<path fill="#999999" d="M56.001,25.361h-3.556v1.935h3.274c0.241,0,0.421,0.056,0.54,0.164c0.119,0.108,0.178,0.254,0.178,0.433
		c0,0.181-0.059,0.325-0.176,0.438c-0.117,0.112-0.297,0.169-0.542,0.169h-3.274v2.24h3.678c0.248,0,0.435,0.059,0.561,0.175
		s0.188,0.271,0.188,0.464c0,0.188-0.062,0.338-0.188,0.454s-0.313,0.175-0.561,0.175h-4.289c-0.344,0-0.591-0.076-0.741-0.23
		c-0.151-0.152-0.226-0.401-0.226-0.745v-5.923c0-0.229,0.034-0.416,0.101-0.562c0.067-0.146,0.172-0.25,0.316-0.315
		c0.143-0.065,0.327-0.101,0.55-0.101h4.167c0.252,0,0.439,0.058,0.561,0.169c0.123,0.113,0.184,0.262,0.184,0.443
		c0,0.188-0.061,0.336-0.184,0.447C56.44,25.307,56.253,25.361,56.001,25.361z"/>
	<path fill="#999999" d="M66.225,29.645c0,0.478-0.122,0.903-0.364,1.282c-0.243,0.38-0.598,0.679-1.066,0.894
		c-0.468,0.216-1.022,0.322-1.664,0.322c-0.769,0-1.403-0.146-1.903-0.44c-0.354-0.211-0.642-0.493-0.864-0.847
		c-0.222-0.354-0.332-0.694-0.332-1.027c0-0.193,0.066-0.359,0.2-0.497c0.132-0.14,0.302-0.207,0.507-0.207
		c0.167,0,0.307,0.056,0.422,0.162c0.115,0.106,0.213,0.267,0.295,0.479c0.099,0.25,0.207,0.459,0.321,0.627
		c0.116,0.17,0.277,0.309,0.487,0.418c0.209,0.107,0.483,0.162,0.824,0.162c0.468,0,0.847-0.109,1.141-0.33
		c0.292-0.221,0.438-0.494,0.438-0.824c0-0.262-0.079-0.475-0.236-0.637c-0.157-0.162-0.361-0.287-0.611-0.373
		s-0.584-0.179-1.002-0.272c-0.56-0.134-1.029-0.288-1.406-0.466s-0.677-0.418-0.899-0.727c-0.221-0.306-0.332-0.687-0.332-1.142
		c0-0.435,0.117-0.817,0.351-1.154c0.233-0.337,0.572-0.596,1.015-0.774C61.99,24.09,62.511,24,63.109,24
		c0.479,0,0.893,0.061,1.241,0.18c0.35,0.12,0.639,0.279,0.87,0.479c0.23,0.198,0.398,0.405,0.505,0.626
		c0.106,0.219,0.159,0.432,0.159,0.639c0,0.19-0.066,0.361-0.199,0.516c-0.133,0.15-0.299,0.229-0.497,0.229
		c-0.181,0-0.318-0.046-0.412-0.139c-0.094-0.09-0.196-0.239-0.306-0.447c-0.142-0.297-0.312-0.529-0.51-0.695
		c-0.198-0.166-0.517-0.25-0.957-0.25c-0.407,0-0.736,0.092-0.986,0.271c-0.25,0.181-0.375,0.398-0.375,0.652
		c0,0.155,0.042,0.293,0.128,0.406c0.085,0.114,0.202,0.215,0.351,0.295c0.149,0.084,0.299,0.147,0.452,0.193
		c0.152,0.047,0.404,0.113,0.755,0.205c0.439,0.104,0.837,0.218,1.193,0.344c0.356,0.125,0.659,0.275,0.909,0.456
		s0.445,0.405,0.585,0.681C66.155,28.91,66.225,29.246,66.225,29.645z"/>
	<path fill="#999999" d="M74.801,25.448h-1.722v5.721c0,0.329-0.072,0.574-0.218,0.733c-0.146,0.158-0.334,0.238-0.562,0.238
		c-0.234,0-0.426-0.08-0.572-0.242c-0.146-0.16-0.221-0.403-0.221-0.729v-5.721h-1.723c-0.27,0-0.469-0.06-0.6-0.181
		c-0.134-0.119-0.197-0.277-0.197-0.476c0-0.205,0.068-0.365,0.205-0.483c0.136-0.117,0.334-0.178,0.592-0.178h5.018
		c0.272,0,0.477,0.062,0.609,0.184c0.132,0.123,0.199,0.281,0.199,0.479c0,0.196-0.068,0.354-0.202,0.477
		C75.273,25.391,75.07,25.448,74.801,25.448z"/>
	<path fill="#999999" d="M83.021,31.115l-0.371-0.988h-3.168l-0.371,1.01c-0.146,0.396-0.271,0.66-0.372,0.799
		c-0.104,0.139-0.271,0.207-0.505,0.207c-0.199,0-0.375-0.074-0.527-0.222c-0.152-0.146-0.229-0.313-0.229-0.5
		c0-0.106,0.019-0.218,0.054-0.332c0.034-0.114,0.094-0.274,0.175-0.479l1.994-5.111c0.057-0.146,0.124-0.323,0.203-0.529
		c0.08-0.205,0.166-0.377,0.256-0.513c0.091-0.138,0.209-0.246,0.355-0.33S80.846,24,81.061,24c0.22,0,0.401,0.042,0.551,0.126
		c0.146,0.084,0.266,0.19,0.354,0.325c0.092,0.132,0.168,0.273,0.229,0.427c0.062,0.153,0.143,0.354,0.236,0.608l2.035,5.08
		c0.16,0.389,0.239,0.668,0.239,0.846c0,0.182-0.075,0.35-0.226,0.502c-0.151,0.15-0.332,0.229-0.545,0.229
		c-0.125,0-0.229-0.021-0.318-0.066c-0.09-0.047-0.164-0.104-0.225-0.184c-0.061-0.078-0.125-0.194-0.193-0.354
		C83.131,31.378,83.07,31.236,83.021,31.115z M79.896,28.93h2.328l-1.177-3.25L79.896,28.93z"/>
	<path fill="#999999" d="M87.639,28.752v-3.786c0-0.321,0.071-0.563,0.215-0.726c0.146-0.162,0.334-0.241,0.567-0.241
		c0.243,0,0.438,0.08,0.581,0.241c0.143,0.16,0.215,0.402,0.215,0.726v3.872c0,0.439,0.051,0.809,0.146,1.104
		c0.098,0.298,0.271,0.524,0.519,0.688s0.595,0.245,1.042,0.245c0.616,0,1.053-0.166,1.307-0.497
		c0.256-0.331,0.386-0.834,0.386-1.507v-3.904c0-0.326,0.067-0.568,0.212-0.729C92.973,24.077,93.159,24,93.396,24
		c0.235,0,0.429,0.079,0.576,0.238c0.146,0.158,0.219,0.402,0.219,0.729v3.786c0,0.616-0.06,1.13-0.178,1.542
		c-0.117,0.411-0.343,0.773-0.673,1.084c-0.282,0.266-0.612,0.459-0.987,0.58c-0.375,0.122-0.814,0.184-1.317,0.184
		c-0.599,0-1.115-0.063-1.547-0.194c-0.433-0.132-0.784-0.333-1.058-0.607c-0.272-0.272-0.475-0.625-0.603-1.053
		C87.703,29.857,87.639,29.348,87.639,28.752z"/>
	<path fill="#999999" d="M100.195,28.641h-0.553v2.528c0,0.333-0.074,0.578-0.22,0.735c-0.146,0.158-0.335,0.236-0.567,0.236
		c-0.252,0-0.446-0.082-0.584-0.248c-0.141-0.164-0.209-0.406-0.209-0.726v-6.06c0-0.344,0.078-0.592,0.229-0.744
		c0.15-0.154,0.396-0.231,0.736-0.231h2.566c0.355,0,0.658,0.017,0.91,0.048c0.251,0.028,0.479,0.092,0.682,0.186
		c0.242,0.104,0.461,0.252,0.647,0.445c0.187,0.191,0.329,0.418,0.427,0.674c0.1,0.256,0.146,0.525,0.146,0.812
		c0,0.587-0.164,1.057-0.491,1.406c-0.328,0.354-0.824,0.602-1.492,0.747c0.28,0.149,0.548,0.372,0.804,0.666
		s0.482,0.604,0.686,0.938c0.199,0.33,0.354,0.631,0.468,0.896c0.11,0.267,0.167,0.448,0.167,0.551c0,0.104-0.031,0.207-0.1,0.31
		c-0.064,0.104-0.153,0.184-0.268,0.241c-0.115,0.06-0.246,0.091-0.396,0.091c-0.177,0-0.325-0.043-0.447-0.127
		c-0.118-0.084-0.223-0.19-0.31-0.32c-0.088-0.129-0.204-0.317-0.354-0.568l-0.633-1.062c-0.226-0.392-0.431-0.688-0.608-0.893
		c-0.177-0.205-0.357-0.344-0.545-0.419C100.707,28.677,100.477,28.641,100.195,28.641z M101.1,25.331h-1.457v2.164h1.414
		c0.379,0,0.698-0.033,0.957-0.101c0.26-0.066,0.457-0.18,0.592-0.338c0.139-0.158,0.205-0.38,0.205-0.658
		c0-0.219-0.055-0.41-0.164-0.576c-0.108-0.168-0.263-0.291-0.457-0.374C102.004,25.37,101.641,25.331,101.1,25.331z"/>
	<path fill="#999999" d="M113.066,31.115l-0.371-0.988h-3.168l-0.373,1.01c-0.146,0.396-0.271,0.66-0.371,0.799
		c-0.102,0.139-0.271,0.207-0.506,0.207c-0.198,0-0.373-0.074-0.525-0.222s-0.229-0.313-0.229-0.5c0-0.106,0.019-0.218,0.055-0.332
		c0.033-0.114,0.094-0.274,0.175-0.479l1.994-5.111c0.056-0.146,0.124-0.323,0.204-0.529c0.08-0.205,0.165-0.377,0.255-0.513
		c0.091-0.138,0.209-0.246,0.356-0.33c0.146-0.084,0.328-0.126,0.543-0.126c0.222,0,0.403,0.042,0.552,0.126
		c0.147,0.084,0.266,0.19,0.354,0.325c0.092,0.132,0.168,0.273,0.229,0.427s0.141,0.354,0.234,0.608l2.035,5.08
		c0.16,0.389,0.238,0.668,0.238,0.846c0,0.182-0.072,0.35-0.225,0.502c-0.152,0.15-0.334,0.229-0.545,0.229
		c-0.123,0-0.229-0.021-0.318-0.066c-0.09-0.047-0.164-0.104-0.225-0.184c-0.062-0.078-0.125-0.194-0.193-0.354
		C113.175,31.379,113.117,31.236,113.066,31.115z M109.941,28.93h2.328l-1.177-3.25L109.941,28.93z"/>
	<path fill="#999999" d="M120.145,24.954l3.035,4.642v-4.685c0-0.304,0.064-0.532,0.194-0.685c0.129-0.152,0.303-0.229,0.522-0.229
		c0.227,0,0.403,0.075,0.537,0.229c0.131,0.151,0.194,0.381,0.194,0.685v6.192c0,0.69-0.282,1.037-0.853,1.037
		c-0.141,0-0.268-0.021-0.383-0.062c-0.111-0.041-0.219-0.105-0.316-0.195c-0.1-0.09-0.189-0.193-0.276-0.312
		c-0.085-0.12-0.17-0.243-0.255-0.368l-2.961-4.587v4.613c0,0.301-0.066,0.526-0.208,0.683c-0.137,0.153-0.313,0.231-0.53,0.231
		c-0.223,0-0.4-0.078-0.535-0.234c-0.136-0.155-0.203-0.383-0.203-0.68v-6.074c0-0.258,0.029-0.461,0.086-0.607
		c0.068-0.16,0.179-0.292,0.334-0.395c0.158-0.104,0.324-0.152,0.506-0.152c0.143,0,0.263,0.021,0.363,0.068
		c0.102,0.048,0.189,0.108,0.267,0.188c0.077,0.078,0.153,0.182,0.233,0.307S120.061,24.818,120.145,24.954z"/>
	<path fill="#999999" d="M133.596,25.448h-1.723v5.721c0,0.329-0.073,0.574-0.219,0.733c-0.146,0.158-0.332,0.238-0.562,0.238
		c-0.234,0-0.426-0.08-0.572-0.242c-0.146-0.16-0.221-0.403-0.221-0.729v-5.721h-1.723c-0.27,0-0.469-0.06-0.602-0.181
		c-0.132-0.119-0.195-0.277-0.195-0.476c0-0.205,0.068-0.365,0.205-0.483c0.136-0.117,0.332-0.178,0.592-0.178h5.018
		c0.272,0,0.477,0.062,0.609,0.184c0.132,0.123,0.199,0.281,0.199,0.479c0,0.196-0.068,0.354-0.202,0.477
		C134.066,25.389,133.863,25.448,133.596,25.448z"/>
</g>
<g>
	<path fill="#333333" d="M49.986,5.651h-6.062v3.886h5.067c0.47,0,0.82,0.105,1.052,0.316s0.347,0.492,0.347,0.845
		s-0.117,0.632-0.352,0.839s-0.584,0.312-1.047,0.312h-5.067v5.005c0,0.636-0.143,1.107-0.43,1.414
		c-0.287,0.308-0.655,0.461-1.104,0.461c-0.456,0-0.827-0.155-1.114-0.466c-0.287-0.312-0.43-0.78-0.43-1.409V5.164
		c0-0.441,0.066-0.803,0.197-1.083c0.131-0.279,0.336-0.483,0.616-0.611c0.28-0.127,0.637-0.191,1.073-0.191h7.254
		c0.49,0,0.855,0.108,1.093,0.326s0.357,0.503,0.357,0.855c0,0.359-0.119,0.647-0.357,0.865S50.476,5.651,49.986,5.651z"/>
	<path fill="#333333" d="M60.41,3.02c1.575,0,2.928,0.319,4.057,0.958c1.129,0.64,1.984,1.548,2.565,2.726
		c0.58,1.178,0.87,2.562,0.87,4.15c0,1.175-0.159,2.242-0.477,3.202s-0.794,1.793-1.43,2.497c-0.636,0.705-1.416,1.244-2.342,1.617
		c-0.926,0.372-1.986,0.559-3.181,0.559c-1.188,0-2.252-0.191-3.192-0.574c-0.939-0.385-1.724-0.924-2.353-1.622
		c-0.628-0.698-1.104-1.537-1.425-2.519c-0.321-0.98-0.482-2.041-0.482-3.181c0-1.168,0.167-2.238,0.503-3.213
		c0.335-0.974,0.82-1.803,1.456-2.487c0.635-0.684,1.409-1.207,2.321-1.569C58.213,3.2,59.25,3.02,60.41,3.02z M64.783,10.833
		c0-1.112-0.18-2.076-0.539-2.892c-0.359-0.815-0.873-1.432-1.539-1.85s-1.432-0.627-2.295-0.627c-0.615,0-1.183,0.116-1.705,0.347
		c-0.521,0.232-0.971,0.568-1.347,1.011s-0.673,1.007-0.891,1.694s-0.326,1.46-0.326,2.316c0,0.863,0.108,1.644,0.326,2.342
		c0.218,0.697,0.525,1.276,0.922,1.735c0.397,0.46,0.853,0.804,1.368,1.031c0.515,0.229,1.08,0.342,1.694,0.342
		c0.788,0,1.511-0.196,2.171-0.591c0.66-0.394,1.185-1.001,1.575-1.823S64.783,12.035,64.783,10.833z"/>
	<path fill="#333333" d="M77.219,3.02c1.575,0,2.928,0.319,4.057,0.958c1.13,0.64,1.985,1.548,2.565,2.726s0.87,2.562,0.87,4.15
		c0,1.175-0.159,2.242-0.477,3.202s-0.795,1.793-1.43,2.497c-0.636,0.705-1.417,1.244-2.343,1.617
		c-0.926,0.372-1.985,0.559-3.181,0.559c-1.188,0-2.253-0.191-3.191-0.574c-0.94-0.385-1.725-0.924-2.353-1.622
		c-0.629-0.698-1.104-1.537-1.425-2.519c-0.321-0.98-0.482-2.041-0.482-3.181c0-1.168,0.168-2.238,0.503-3.213
		c0.335-0.974,0.82-1.803,1.456-2.487c0.636-0.684,1.409-1.207,2.321-1.569C75.022,3.2,76.059,3.02,77.219,3.02z M81.592,10.833
		c0-1.112-0.18-2.076-0.539-2.892s-0.872-1.432-1.538-1.85c-0.667-0.418-1.433-0.627-2.296-0.627c-0.615,0-1.183,0.116-1.704,0.347
		c-0.522,0.232-0.971,0.568-1.348,1.011s-0.674,1.007-0.891,1.694c-0.218,0.688-0.327,1.46-0.327,2.316
		c0,0.863,0.109,1.644,0.327,2.342c0.217,0.697,0.524,1.276,0.922,1.735c0.397,0.46,0.854,0.804,1.368,1.031
		c0.515,0.229,1.079,0.342,1.694,0.342c0.787,0,1.511-0.196,2.171-0.591c0.659-0.394,1.185-1.001,1.575-1.823
		C81.396,13.047,81.592,12.035,81.592,10.833z"/>
	<path fill="#333333" d="M91.478,11.973h-1.078v4.881c0,0.643-0.142,1.115-0.425,1.42c-0.283,0.304-0.652,0.455-1.108,0.455
		c-0.491,0-0.871-0.159-1.141-0.477c-0.269-0.317-0.403-0.783-0.403-1.398V5.164c0-0.663,0.148-1.143,0.445-1.44
		c0.297-0.297,0.777-0.445,1.44-0.445h5.005c0.69,0,1.281,0.029,1.772,0.088c0.49,0.059,0.933,0.178,1.326,0.357
		c0.477,0.201,0.897,0.487,1.265,0.86c0.365,0.373,0.644,0.807,0.834,1.301c0.189,0.494,0.285,1.018,0.285,1.569
		c0,1.134-0.32,2.038-0.959,2.716c-0.639,0.677-1.608,1.157-2.906,1.44c0.545,0.29,1.066,0.718,1.564,1.284
		c0.497,0.566,0.941,1.17,1.331,1.809c0.391,0.639,0.694,1.216,0.912,1.73s0.326,0.869,0.326,1.062c0,0.2-0.063,0.398-0.191,0.596
		s-0.302,0.352-0.523,0.466c-0.221,0.114-0.477,0.171-0.767,0.171c-0.346,0-0.636-0.081-0.87-0.243
		c-0.235-0.162-0.438-0.368-0.606-0.616c-0.17-0.249-0.399-0.615-0.689-1.099l-1.233-2.052c-0.441-0.753-0.837-1.326-1.187-1.721
		c-0.349-0.394-0.702-0.663-1.062-0.808C92.476,12.045,92.022,11.973,91.478,11.973z M93.239,5.589h-2.84v4.177h2.757
		c0.739,0,1.36-0.064,1.865-0.192c0.504-0.127,0.89-0.345,1.155-0.652s0.399-0.73,0.399-1.27c0-0.421-0.107-0.793-0.321-1.114
		c-0.215-0.321-0.512-0.561-0.892-0.72C95.004,5.665,94.296,5.589,93.239,5.589z"/>
	<path fill="#333333" d="M112.617,5.651h-6.933v3.73h6.384c0.47,0,0.82,0.105,1.052,0.316s0.347,0.488,0.347,0.834
		s-0.113,0.627-0.342,0.845c-0.228,0.218-0.58,0.326-1.057,0.326h-6.384v4.321h7.171c0.484,0,0.849,0.112,1.094,0.337
		s0.368,0.523,0.368,0.896c0,0.359-0.123,0.65-0.368,0.875s-0.609,0.337-1.094,0.337h-8.362c-0.67,0-1.152-0.148-1.445-0.446
		c-0.294-0.296-0.44-0.776-0.44-1.439V5.164c0-0.441,0.065-0.803,0.196-1.083c0.132-0.279,0.337-0.483,0.617-0.611
		c0.279-0.127,0.637-0.191,1.072-0.191h8.124c0.491,0,0.855,0.108,1.094,0.326s0.357,0.503,0.357,0.855
		c0,0.359-0.119,0.647-0.357,0.865S113.108,5.651,112.617,5.651z"/>
	<path fill="#333333" d="M128.307,13.91c0,0.919-0.237,1.745-0.71,2.477c-0.474,0.732-1.166,1.306-2.078,1.721
		c-0.911,0.414-1.993,0.621-3.243,0.621c-1.499,0-2.735-0.283-3.71-0.85c-0.69-0.407-1.252-0.951-1.684-1.632
		s-0.647-1.342-0.647-1.984c0-0.373,0.129-0.692,0.389-0.959c0.259-0.266,0.589-0.398,0.989-0.398c0.324,0,0.6,0.104,0.824,0.311
		c0.224,0.208,0.416,0.515,0.574,0.923c0.193,0.483,0.402,0.888,0.627,1.212c0.225,0.325,0.541,0.593,0.948,0.804
		c0.408,0.21,0.943,0.315,1.606,0.315c0.912,0,1.653-0.212,2.223-0.637c0.57-0.425,0.855-0.955,0.855-1.591
		c0-0.504-0.154-0.914-0.461-1.229c-0.308-0.313-0.705-0.554-1.192-0.72s-1.138-0.342-1.953-0.528
		c-1.092-0.256-2.005-0.555-2.741-0.896c-0.735-0.342-1.319-0.809-1.751-1.399s-0.647-1.324-0.647-2.202
		c0-0.835,0.228-1.578,0.684-2.228s1.115-1.148,1.979-1.497c0.863-0.35,1.879-0.523,3.047-0.523c0.933,0,1.738,0.115,2.419,0.347
		s1.245,0.539,1.694,0.923c0.449,0.383,0.777,0.785,0.984,1.207c0.208,0.421,0.312,0.832,0.312,1.233
		c0,0.366-0.13,0.695-0.389,0.989s-0.582,0.44-0.969,0.44c-0.353,0-0.62-0.088-0.804-0.265c-0.183-0.176-0.382-0.464-0.596-0.865
		c-0.276-0.573-0.607-1.021-0.995-1.342c-0.387-0.321-1.009-0.481-1.865-0.481c-0.794,0-1.435,0.174-1.922,0.523
		c-0.487,0.349-0.73,0.769-0.73,1.259c0,0.304,0.083,0.566,0.249,0.787c0.165,0.222,0.394,0.411,0.684,0.57s0.584,0.283,0.881,0.373
		s0.787,0.221,1.472,0.394c0.856,0.2,1.632,0.422,2.326,0.663c0.694,0.242,1.285,0.536,1.771,0.881
		c0.487,0.346,0.867,0.782,1.141,1.312C128.17,12.496,128.307,13.144,128.307,13.91z"/>
</g>
</svg>
