<?xml version="1.0" encoding="utf-8"?>
<!-- Generator: Adobe Illustrator 15.0.0, SVG Export Plug-In . SVG Version: 6.00 Build 0)  -->
<!DOCTYPE svg PUBLIC "-//W3C//DTD SVG 1.1//EN" "http://www.w3.org/Graphics/SVG/1.1/DTD/svg11.dtd">
<svg version="1.1" id="Layer_1" xmlns="http://www.w3.org/2000/svg" xmlns:xlink="http://www.w3.org/1999/xlink" x="0px" y="0px"
	 width="100px" height="115px" viewBox="17.5 -40 100 115" enable-background="new 17.5 -40 100 115" xml:space="preserve">
<g opacity="0.1">
	<path fill="#FFFFFF" d="M35.575,44.716l3.868,4.566c-2.699-1.989-5.487-4.355-8.372-7.426C22.659,32.92,17.5,20.876,17.5,7.609
		c0-14.957,6.563-28.388,16.994-37.528l-5.626,53.254c-0.162,1.57-0.184,3.073-0.046,4.5C29.15,34.094,31.472,39.931,35.575,44.716z
		"/>
	<path fill="#FFFFFF" d="M94.197,40.142l-12.844,15.08c-1.984,2.351-11.244,13.926-13.854,19.41l-0.024-0.022
		C65.135,69.688,55.75,57.566,53.76,55.222l-12.844-15.08c-3.094-3.62-4.875-8.085-5.085-12.818
		c-0.119-1.056-0.096-2.155,0.022-3.262l5.695-53.843c0.187-1.991,1.809-3.491,3.777-3.491c0.022,0,0.022,0,0.045,0h0.027
		c1.919,0,3.491,1.569,3.468,3.491V19.52c0,0.256,0.022,0.537,0.117,0.748c0.331,1.497,1.665,2.633,3.259,2.633
		c1.877,0,3.374-1.522,3.374-3.371v-55.121c0-1.174,0.472-2.296,1.294-3.093C57.747-39.528,58.873-40,60.019-40
		c2.319,0.022,4.172,1.877,4.172,4.172v55.344c0,1.846,1.5,3.349,3.35,3.349c0.027,0,0.027,0,0.027,0
		c1.85,0,3.373-1.529,3.373-3.374v-54.873c0-2.555,2.018-4.596,4.549-4.596c0,0,0.023,0,0.047,0h0.068
		c1.127,0,2.204,0.449,2.979,1.246c0.819,0.795,1.265,1.895,1.265,3.069l-0.021,53.139l0.021,2.019c0,1.849,1.5,3.371,3.377,3.371
		c0,0,0.023,0,0.049,0c1.804,0,3.304-1.497,3.304-3.346l0.027-0.403l-0.027-48.708c0-0.987,0.378-1.9,1.078-2.602
		c0.681-0.704,1.641-1.104,2.627-1.104c1.69,0,3.095,1.291,3.258,2.978l5.742,54.38c0.022,0.227,0.048,0.482,0.048,0.764
		C99.657,30.394,97.832,35.901,94.197,40.142z"/>
	<path fill="#FFFFFF" d="M117.5,7.609c0,13.267-5.159,25.292-13.572,34.247c-2.79,2.975-5.486,5.296-8.09,7.219l3.728-4.386
		c4.758-5.555,7.173-12.678,6.798-20.065c-0.022-0.537-0.048-1.014-0.094-1.334l-5.578-53.072
		C111.004-20.615,117.5-7.25,117.5,7.609z"/>
</g>
</svg>
